<mxfile host="app.diagrams.net" modified="2023-11-02T16:04:24.587Z" agent="Mozilla/5.0 (Windows NT 10.0; Win64; x64) AppleWebKit/537.36 (KHTML, like Gecko) Chrome/118.0.0.0 Safari/537.36" version="21.7.2" etag="qSIiUUAkt2CjoRi-n1or" type="github">
  <diagram name="Страница — 1" id="x-OaPc2PF4KXxQVyQyCI">
    <mxGraphModel>
      <root>
        <mxCell id="0" />
        <mxCell id="1" parent="0" />
      </root>
    </mxGraphModel>
  </diagram>
</mxfile>
